<svg width="48" height="48" viewBox="0 0 48 48" fill="none" xmlns="http://www.w3.org/2000/svg">
<path fill-rule="evenodd" clip-rule="evenodd" d="M15 18.75C15 18.3358 15.3358 18 15.75 18H32.25C32.6642 18 33 18.3358 33 18.75C33 19.1642 32.6642 19.5 32.25 19.5H15.75C15.3358 19.5 15 19.1642 15 18.75ZM15 24C15 23.5858 15.3358 23.25 15.75 23.25H32.25C32.6642 23.25 33 23.5858 33 24C33 24.4142 32.6642 24.75 32.25 24.75H15.75C15.3358 24.75 15 24.4142 15 24ZM15 29.25C15 28.8358 15.3358 28.5 15.75 28.5H32.25C32.6642 28.5 33 28.8358 33 29.25C33 29.6642 32.6642 30 32.25 30H15.75C15.3358 30 15 29.6642 15 29.25Z" fill="#1A1D20"/>
</svg>
